HIERARCHY
ROOT Hips
{
  OFFSET 0.0273292 -0.436096 0.279869
  CHANNELS 6 Xposition Yposition Zposition Zrotation Xrotation Yrotation
  JOINT LHipJoint
  {
    OFFSET 0 0 0
    CHANNELS 6 Xposition Yposition Zposition Zrotation Xrotation Yrotation
    JOINT LeftUpLeg
    {
      OFFSET 1.36306 -1.79463 0
      CHANNELS 6 Xposition Yposition Zposition Zrotation Xrotation Yrotation
      JOINT LeftLeg
      {
        OFFSET 2.44807 -6.72613 0.000295034
        CHANNELS 6 Xposition Yposition Zposition Zrotation Xrotation Yrotation
        JOINT LeftFoot
        {
          OFFSET 2.5622 -7.03959 3.59965e-05
          CHANNELS 6 Xposition Yposition Zposition Zrotation Xrotation Yrotation
          JOINT LeftToeBase
          {
            OFFSET 0.15764 -0.43311 2.32255
            CHANNELS 6 Xposition Yposition Zposition Zrotation Xrotation Yrotation
            End Site
            {
              OFFSET 0 0 0
            }
          }
        }
      }
    }
  }
  JOINT RHipJoint
  {
    OFFSET 0 0 0
    CHANNELS 6 Xposition Yposition Zposition Zrotation Xrotation Yrotation
    JOINT RightUpLeg
    {
      OFFSET -1.30552 -1.79463 0
      CHANNELS 6 Xposition Yposition Zposition Zrotation Xrotation Yrotation
      JOINT RightLeg
      {
        OFFSET -2.54234 -6.98562 -0.000396375
        CHANNELS 6 Xposition Yposition Zposition Zrotation Xrotation Yrotation
        JOINT RightFoot
        {
          OFFSET -2.56826 -7.05623 -4.47982e-05
          CHANNELS 6 Xposition Yposition Zposition Zrotation Xrotation Yrotation
          JOINT RightToeBase
          {
            OFFSET -0.16473 -0.45259 2.36315
            CHANNELS 6 Xposition Yposition Zposition Zrotation Xrotation Yrotation
            End Site
            {
              OFFSET 0 0 0
            }
          }
        }
      }
    }
  }
  JOINT LowerBack
  {
    OFFSET 0 0 0
    CHANNELS 6 Xposition Yposition Zposition Zrotation Xrotation Yrotation
    JOINT Spine
    {
      OFFSET 0.0282699 2.03559 0
      CHANNELS 6 Xposition Yposition Zposition Zrotation Xrotation Yrotation
      JOINT Spine1
      {
        OFFSET 0.05672 2.04885 -0.04275
        CHANNELS 6 Xposition Yposition Zposition Zrotation Xrotation Yrotation
        JOINT Neck
        {
          OFFSET 0 0 0
          CHANNELS 6 Xposition Yposition Zposition Zrotation Xrotation Yrotation
          JOINT Neck1
          {
            OFFSET -0.05417 1.74624 0.17202
            CHANNELS 6 Xposition Yposition Zposition Zrotation Xrotation Yrotation
            JOINT Head
            {
              OFFSET 0.10407 1.76136 -0.12397
              CHANNELS 6 Xposition Yposition Zposition Zrotation Xrotation Yrotation
              End Site
              {
                OFFSET 0 0 0
              }
            }
          }
        }
        JOINT LeftShoulder
        {
          OFFSET 0 0 0
          CHANNELS 6 Xposition Yposition Zposition Zrotation Xrotation Yrotation
          JOINT LeftArm
          {
            OFFSET 3.36241 1.20089 -0.311211
            CHANNELS 6 Xposition Yposition Zposition Zrotation Xrotation Yrotation
            JOINT LeftForeArm
            {
              OFFSET 4.983 0.000197398 0.000166057
              CHANNELS 6 Xposition Yposition Zposition Zrotation Xrotation Yrotation
              JOINT LeftHand
              {
                OFFSET 3.48356 0 1.87849e-05
                CHANNELS 6 Xposition Yposition Zposition Zrotation Xrotation Yrotation
                JOINT LeftFingerBase
                {
                  OFFSET 0 0 0
                  CHANNELS 6 Xposition Yposition Zposition Zrotation Xrotation Yrotation
                  JOINT LeftHandIndex1
                  {
                    OFFSET 0.71526 0 0
                    CHANNELS 6 Xposition Yposition Zposition Zrotation Xrotation Yrotation
                    End Site
                    {
                      OFFSET 0 0 0
                    }
                  }
                }
                JOINT LThumb
                {
                  OFFSET 0 0 0
                  CHANNELS 6 Xposition Yposition Zposition Zrotation Xrotation Yrotation
                  End Site
                  {
                    OFFSET 0 0 0
                  }
                }
              }
            }
          }
        }
        JOINT RightShoulder
        {
          OFFSET 0 0 0
          CHANNELS 6 Xposition Yposition Zposition Zrotation Xrotation Yrotation
          JOINT RightArm
          {
            OFFSET -3.1366 1.37405 -0.404651
            CHANNELS 6 Xposition Yposition Zposition Zrotation Xrotation Yrotation
            JOINT RightForeArm
            {
              OFFSET -5.2419 -5.8808e-05 -0.000165864
              CHANNELS 6 Xposition Yposition Zposition Zrotation Xrotation Yrotation
              JOINT RightHand
              {
                OFFSET -3.44417 0 -2.00002e-05
                CHANNELS 6 Xposition Yposition Zposition Zrotation Xrotation Yrotation
                JOINT RightFingerBase
                {
                  OFFSET 0 0 0
                  CHANNELS 6 Xposition Yposition Zposition Zrotation Xrotation Yrotation
                  JOINT RightHandIndex1
                  {
                    OFFSET -0.62253 0 0
                    CHANNELS 6 Xposition Yposition Zposition Zrotation Xrotation Yrotation
                    End Site
                    {
                      OFFSET 0 0 0
                    }
                  }
                }
                JOINT RThumb
                {
                  OFFSET 0 0 0
                  CHANNELS 6 Xposition Yposition Zposition Zrotation Xrotation Yrotation
                  End Site
                  {
                    OFFSET 0 0 0
                  }
                }
              }
            }
          }
        }
      }
    }
  }
}
MOTION
Frames:	4
Frame Time:	0.00833333
-0.144787 1.87495 -2.25836 4.00314 0.831659 2.72 0 0 0 1.21756e-15 1.98785e-16 7.95139e-16 1.36306 -1.79463 2.24445e-07 -28.4928 -32.602 -5.76514 2.44804 -6.72616 0.000339896 -8.73247 44.957 28.7806 2.5622 -7.03958 -1.14957e-05 5.9509 -14.3893 -7.1925 0.15764 -0.43311 2.32255 -3.37934e-15 3.97569e-16 -1.59028e-15 0 0 0 1.21756e-15 1.98785e-16 7.95139e-16 -1.30552 -1.79463 -9.37136e-08 6.91217 -33.6155 -2.62151 -2.54237 -6.9856 0.000310812 22.6858 58.7825 -29.8071 -2.56825 -7.05624 2.20149e-06 -2.946 16.8678 -5.58121 -0.16473 -0.45259 2.36315 -4.77083e-15 0 3.18055e-15 0 0 0 1.21756e-15 1.98785e-16 7.95139e-16 0.0282708 2.03559 -7.1773e-08 -4.91599 20.569 0.336345 0.05672 2.04885 -0.04275 -5.96354e-16 3.18055e-15 -0 0 0 0 1.98785e-16 0 -7.95139e-16 -0.05417 1.74624 0.17202 0.692748 -4.8259 0.981817 0.10407 1.76136 -0.12397 1.98785e-16 -3.18055e-15 -0 0 0 0 1.98785e-16 0 -7.95139e-16 3.36241 1.20089 -0.31121 -74.9643 -14.0382 -59.1622 4.983 0.000248099 -0.00010339 2.08364 1.24399 -83.0577 3.48356 -2.46831e-06 1.56886e-05 -6.39643e-05 4.77083e-15 -0.000273425 0 0 0 -4.41391e-32 -7.95139e-16 -3.18055e-15 0.71526 -8.88178e-16 0 8.82781e-32 -1.59028e-15 3.18055e-15 0 0 0 -4.41391e-32 -7.95139e-16 -3.18055e-15 0 0 0 1.98785e-16 0 -7.95139e-16 -3.1366 1.37405 -0.40465 65.0759 -5.23127 21.7135 -5.2419 0.000236737 0.000114873 -1.88415 1.20978 73.4876 -3.44417 -3.98045e-06 2.84983e-06 6.90323e-05 4.17448e-15 6.75238e-05 0 0 0 3.86217e-32 1.39149e-15 -1.59028e-15 -0.62253 0 1.11022e-16 0 3.97569e-15 -0 0 0 0 3.86217e-32 1.39149e-15 -1.59028e-15 
-0.132579 1.87194 -2.25064 3.82854 0.749277 2.50944 0 0 0 -4.34841e-17 0 3.97569e-16 1.36306 -1.79463 2.24445e-07 -28.3183 -32.2999 -5.71246 2.44804 -6.72616 0.000339896 -8.58931 44.6145 28.8945 2.5622 -7.03958 -1.14957e-05 5.77426 -14.2681 -7.18392 0.15764 -0.43311 2.32255 -5.64051e-15 -1.98785e-16 -0 0 0 0 -4.34841e-17 0 3.97569e-16 -1.30552 -1.79463 -9.37136e-08 7.07098 -34.0302 -2.32963 -2.54237 -6.9856 0.000310812 24.2473 59.7761 -31.5203 -2.56825 -7.05624 2.20149e-06 -3.33937 16.6906 -5.31263 -0.16473 -0.45259 2.36315 1.59028e-15 3.18055e-15 -4.77083e-15 0 0 0 -4.34841e-17 0 3.97569e-16 0.0282708 2.03559 -7.1773e-08 -4.7773 20.6335 0.297041 0.05672 2.04885 -0.04275 1.98785e-16 0 -0 0 0 0 1.98785e-16 0 -0 -0.05417 1.74624 0.17202 0.722222 -4.65918 1.05216 0.10407 1.76136 -0.12397 -2.20695e-32 -3.18055e-15 -3.97569e-16 0 0 0 1.98785e-16 0 -0 3.36241 1.20089 -0.31121 -75.0762 -14.1028 -58.6689 4.983 0.000248099 -0.00010339 2.08423 1.27215 -83.3519 3.48356 -2.46831e-06 1.56886e-05 0.137392 -0.346049 0.119762 0 0 0 0 0 -3.18055e-15 0.71526 0 4.44089e-16 1.76556e-31 -3.18055e-15 3.18055e-15 0 0 0 0 0 -3.18055e-15 0 0 0 1.98785e-16 0 -0 -3.1366 1.37405 -0.40465 64.2813 -5.28787 22.0827 -5.2419 0.000236737 0.000114873 -1.88486 1.22068 73.7487 -3.44417 -3.98045e-06 2.84983e-06 1.54539 1.03317 1.46418 0 0 0 3.18055e-15 -5.1684e-15 -1.59028e-15 -0.62253 0 3.33067e-16 -0 -1.98785e-15 -0 0 0 0 3.18055e-15 -5.1684e-15 -1.59028e-15 
-0.103072 1.86479 -2.23233 3.3987 0.55 1.99664 0 0 0 1.05604e-16 9.93923e-17 3.97569e-16 1.36306 -1.79463 2.24445e-07 -27.8836 -31.5548 -5.57548 2.44804 -6.72616 0.000339896 -8.19828 43.7713 29.0955 2.5622 -7.03958 -1.14957e-05 5.35095 -13.9472 -7.1411 0.15764 -0.43311 2.32255 -6.4605e-16 -1.59028e-15 -0 0 0 0 1.05604e-16 9.93923e-17 3.97569e-16 -1.30552 -1.79463 -9.37136e-08 7.49026 -35.0304 -1.60762 -2.54237 -6.9856 0.000310812 28.4866 62.0316 -36.1107 -2.56825 -7.05624 2.20149e-06 -4.27997 16.2361 -4.66921 -0.16473 -0.45259 2.36315 8.82781e-32 3.18055e-15 -1.59028e-15 0 0 0 1.05604e-16 9.93923e-17 3.97569e-16 0.0282708 2.03559 -7.1773e-08 -4.43508 20.7754 0.205354 0.05672 2.04885 -0.04275 -0 0 3.97569e-16 0 0 0 0 3.18055e-15 -0 -0.05417 1.74624 0.17202 0.791522 -4.25788 1.22372 0.10407 1.76136 -0.12397 1.98785e-16 0 7.95139e-16 0 0 0 0 3.18055e-15 -0 3.36241 1.20089 -0.31121 -75.3107 -14.2459 -57.4531 4.983 0.000248099 -0.00010339 2.08725 1.31044 -83.998 3.48356 -2.46831e-06 1.56886e-05 0.472564 -1.17856 0.413215 0 0 0 0 0 -6.36111e-15 0.71526 0 0 1.59028e-15 7.15625e-15 -3.18055e-15 0 0 0 0 0 -6.36111e-15 0 0 0 0 3.18055e-15 -0 -3.1366 1.37405 -0.40465 62.348 -5.42613 22.9832 -5.2419 0.000236737 0.000114873 -1.88706 1.24135 74.3231 -3.44417 -3.98045e-06 2.84983e-06 5.09745 3.5292 4.98216 0 0 0 1.65521e-32 -3.97569e-16 2.38542e-15 -0.62253 0 -2.22045e-16 1.59028e-15 8.74653e-15 -1.59028e-15 0 0 0 1.65521e-32 -3.97569e-16 2.38542e-15 
-0.0669428 1.85638 -2.21068 2.85536 0.305739 1.35987 0 0 0 2.40716e-16 4.96962e-17 3.97569e-16 1.36306 -1.79463 2.24445e-07 -27.3219 -30.6084 -5.3856 2.44804 -6.72616 0.000339896 -7.6269 42.7034 29.1796 2.5622 -7.03958 -1.14957e-05 4.84007 -13.4906 -7.03869 0.15764 -0.43311 2.32255 -4.27387e-15 -7.95139e-16 1.59028e-15 0 0 0 2.40716e-16 4.96962e-17 3.97569e-16 -1.30552 -1.79463 -9.37136e-08 8.07875 -36.2509 -0.688059 -2.54237 -6.9856 0.000310812 34.6464 64.46 -42.6765 -2.56825 -7.05624 2.20149e-06 -5.40974 15.621 -3.89398 -0.16473 -0.45259 2.36315 1.59028e-15 6.36111e-15 -0 0 0 0 2.40716e-16 4.96962e-17 3.97569e-16 0.0282708 2.03559 -7.1773e-08 -4.00034 20.9172 0.100728 0.05672 2.04885 -0.04275 -9.93923e-17 6.36111e-15 1.98785e-16 0 0 0 9.93923e-17 6.36111e-15 1.98785e-16 -0.05417 1.74624 0.17202 0.872527 -3.77033 1.43733 0.10407 1.76136 -0.12397 -2.20695e-32 3.18055e-15 3.97569e-16 0 0 0 9.93923e-17 6.36111e-15 1.98785e-16 3.36241 1.20089 -0.31121 -75.5164 -14.3951 -55.9123 4.983 0.000248099 -0.00010339 2.09219 1.31628 -84.6412 3.48356 -2.46831e-06 1.56886e-05 0.887725 -2.18901 0.780302 0 0 0 1.59028e-15 -3.18055e-15 6.36111e-15 0.71526 -8.88178e-16 4.44089e-16 8.82781e-31 7.95139e-15 -6.36111e-15 0 0 0 1.59028e-15 -3.18055e-15 6.36111e-15 0 0 0 9.93923e-17 6.36111e-15 1.98785e-16 -3.1366 1.37405 -0.40465 59.9506 -5.59922 24.1048 -5.2419 0.000236737 0.000114873 -1.89007 1.25746 74.8974 -3.44417 -3.98045e-06 2.84983e-06 9.10985 6.55411 9.26301 0 0 0 -3.18055e-15 1.31198e-14 -3.18055e-15 -0.62253 0 -2.22045e-16 -3.18055e-15 -6.06293e-15 -7.95139e-16 0 0 0 -3.18055e-15 1.31198e-14 -3.18055e-15 
